<?xml version="1.0" standalone="no"?><!DOCTYPE svg PUBLIC "-//W3C//DTD SVG 1.1//EN" "http://www.w3.org/Graphics/SVG/1.1/DTD/svg11.dtd"><svg t="1672579078368" class="icon" viewBox="0 0 1024 1024" version="1.1" xmlns="http://www.w3.org/2000/svg" p-id="3315" xmlns:xlink="http://www.w3.org/1999/xlink" width="200" height="200"><path d="M512 512m-512 0a512 512 0 1 0 1024 0 512 512 0 1 0-1024 0Z" fill="#FFFFFF" p-id="3316"></path><path d="M512 0c282.752 0 512 229.248 512 512s-229.248 512-512 512S0 794.752 0 512 229.248 0 512 0z m0 42.666667C252.8 42.666667 42.666667 252.8 42.666667 512s210.133333 469.333333 469.333333 469.333333 469.333333-210.133333 469.333333-469.333333S771.2 42.666667 512 42.666667z" fill="#3D50FF" fill-opacity=".351" p-id="3317"></path><path d="M490.666667 341.333333m21.333333 0l0 0q21.333333 0 21.333333 21.333334l0 298.666666q0 21.333333-21.333333 21.333334l0 0q-21.333333 0-21.333333-21.333334l0-298.666666q0-21.333333 21.333333-21.333334Z" fill="#3D50FF" p-id="3318"></path><path d="M341.333333 341.333333m21.333334 0l0 0q21.333333 0 21.333333 21.333334l0 298.666666q0 21.333333-21.333333 21.333334l0 0q-21.333333 0-21.333334-21.333334l0-298.666666q0-21.333333 21.333334-21.333334Z" fill="#3D50FF" p-id="3319"></path><path d="M640 341.333333m21.333333 0l0 0q21.333333 0 21.333334 21.333334l0 298.666666q0 21.333333-21.333334 21.333334l0 0q-21.333333 0-21.333333-21.333334l0-298.666666q0-21.333333 21.333333-21.333334Z" fill="#3D50FF" p-id="3320"></path></svg>